<?xml version="1.0" encoding="utf-8"?>
<!-- Generator: Adobe Illustrator 19.0.0, SVG Export Plug-In . SVG Version: 6.00 Build 0)  -->
<svg version="1.1" id="Laag_1" xmlns="http://www.w3.org/2000/svg" xmlns:xlink="http://www.w3.org/1999/xlink" x="0px" y="0px"
	 viewBox="-40.1 199.9 511.1 442.3" style="enable-background:new -40.1 199.9 511.1 442.3;" xml:space="preserve">
<style type="text/css">
	.st0{fill:#0BA25E;}
	.st1{fill:#FCCD48;}
	.st2{fill:#089156;}
	.st3{fill:#10985B;}
	.st4{fill:#F9C941;}
	.st5{fill:#E3B73A;}
	.st6{fill:#E8B835;}
	.st7{fill:#296AD9;}
	.st8{fill:#2A71E9;}
	.st9{fill:#286EE6;}
</style>
<g id="_x23_0ba25eff">
	<path class="st0" d="M126.1,200l0.4,0l0,0.5l-0.6,0L126.1,200z"/>
	<path class="st0" d="M124.4,203.3c0.4-0.6,1.2-1.7,1.5-2.2l0.7-0.1c0.5,6.3,2.4,12.4,3.8,18.6c6,26.8,12.1,53.6,18.4,80.3
		c4.1,18.3,8.8,36.6,12.6,55c3.3,11.4,5.1,23.1,8.3,34.6c2.1,10.6,5.3,21,7,31.7c-0.7,1.2-1.4,2.4-2.1,3.5c-0.2,0.3-0.5,0.8-0.7,1.1
		l-0.3,0.4c0,0.1-0.1,0.3-0.2,0.3c-0.4,0.7-1.2,2.1-1.6,2.9c-0.1,0.1-0.2,0.4-0.3,0.5l-0.7,1.3c-0.1,0.2-0.3,0.4-0.3,0.6l-0.8,1.5
		c0,0.1-0.1,0.2-0.2,0.3l-1,1.8c-0.1,0.1-0.3,0.5-0.4,0.6c-0.1,0.2-0.3,0.5-0.4,0.7l-1,1.7c-0.1,0.1-0.2,0.4-0.3,0.5l-0.6,1
		c-0.1,0.2-0.3,0.5-0.4,0.7c-0.4,0.7-1.2,2.1-1.6,2.8c-0.1,0.1-0.2,0.4-0.3,0.5l-0.6,1c-0.1,0.2-0.3,0.6-0.4,0.7
		c-0.4,0.6-1.1,1.9-1.5,2.6c-0.1,0.1-0.3,0.5-0.4,0.6l-0.8,1.4c-0.1,0.1-0.2,0.4-0.3,0.5l-0.8,1.3c-0.1,0.1-0.2,0.4-0.3,0.6
		c-0.4,0.7-1.2,2-1.6,2.7c-0.1,0.1-0.3,0.5-0.4,0.6l-0.7,1.3c-0.1,0.1-0.2,0.4-0.3,0.5l-0.8,1.4c-0.1,0.1-0.2,0.4-0.3,0.5
		c-0.4,0.7-1.3,2.1-1.7,2.9c-0.1,0.1-0.2,0.4-0.3,0.5l-0.6,1c-0.1,0.2-0.3,0.5-0.4,0.7c-0.4,0.7-1.1,2-1.5,2.6
		c-0.1,0.1-0.2,0.4-0.3,0.5l-0.8,1.5c-0.1,0.1-0.2,0.3-0.2,0.4l-0.8,1.5c-0.1,0.1-0.2,0.4-0.3,0.5c-0.4,0.7-1.2,2-1.6,2.6
		c-0.1,0.2-0.3,0.5-0.4,0.7l-0.6,1.1c-0.1,0.1-0.2,0.4-0.3,0.6l-1,1.8c-0.1,0.1-0.3,0.4-0.3,0.6c-0.1,0.1-0.3,0.4-0.3,0.6
		c-1.7,2.9-3.2,5.8-5.1,8.5c-10.7,17.4-20.5,35.3-30.8,52.9c-16.7,29-33.5,57.9-50.2,86.9c-2.5,4.5-5.4,8.8-7.5,13.5
		c-0.1,0.2-0.3,0.5-0.4,0.6c-4-5.8-7.1-12.2-10.8-18.2c-16.7-29-33.5-58-50.2-87c-9.3-16.3-19-32.4-28-48.9
		c35.8-61.9,71.5-123.8,107.3-185.7c0-0.1,0.1-0.2,0.1-0.2l1-1.7c0-0.1,0.1-0.2,0.2-0.3l1-1.7c0.1-0.2,0.3-0.5,0.4-0.6
		c0.1-0.2,0.3-0.5,0.4-0.7l1-1.8c0.1-0.1,0.2-0.4,0.3-0.5l0.7-1.2c0.1-0.2,0.4-0.6,0.5-0.8c0.4-0.5,1.1-1.6,1.5-2.2
		c0-0.2,0.1-0.5,0.2-0.7l0.9-1.7c0-0.1,0.1-0.2,0.2-0.3l1-1.7c0.1-0.2,0.3-0.5,0.4-0.7c0.1-0.2,0.3-0.6,0.5-0.8l0.8-1.5
		c0.1-0.2,0.3-0.5,0.4-0.6l0.7-1.2c0.1-0.1,0.2-0.4,0.3-0.5c0.4-0.7,1.2-2,1.6-2.7c0.1-0.1,0.2-0.4,0.3-0.6l0.7-1.3
		c0.1-0.1,0.2-0.3,0.2-0.4l1-1.7c0.1-0.2,0.4-0.6,0.5-0.8l0.7-1c0.1-0.2,0.4-0.6,0.6-0.8c0.1-0.2,0.4-0.6,0.5-0.8l0.5-1
		c0.2-0.4,0.5-1.2,0.7-1.6l0.5-0.8c0.1-0.1,0.3-0.4,0.4-0.6c0.4-0.3,1.1-0.9,1.5-1.3l-0.1-1.2c0.1-0.1,0.2-0.4,0.3-0.6l0.9-1.7
		c0.1-0.1,0.2-0.4,0.3-0.5l0.8-1.2c0.1-0.2,0.4-0.6,0.6-0.8c0.3-0.6,1-1.7,1.4-2.2c0.1-0.2,0.3-0.6,0.4-0.8l0.5-1.2
		c0.2-0.3,0.5-0.9,0.7-1.2l0.7-0.9c0.1-0.2,0.4-0.6,0.6-0.8c0.1-0.2,0.4-0.6,0.5-0.8l0.5-1c0.1-0.2,0.3-0.7,0.4-0.9l0.9-1.7
		c0.1-0.2,0.4-0.6,0.5-0.8l0.7-1c0.1-0.2,0.4-0.6,0.6-0.8c0.1-0.2,0.4-0.6,0.5-0.8l0.5-1c0.1-0.3,0.4-0.9,0.6-1.1l0.7-1.1
		c0.1-0.2,0.4-0.6,0.5-0.8c0.4-0.6,1.1-1.7,1.5-2.2c0-0.2,0.1-0.5,0.2-0.7l0.9-1.7c0-0.1,0.1-0.2,0.1-0.3l1-1.7
		c0.1-0.2,0.3-0.5,0.4-0.7c0.1-0.2,0.3-0.5,0.4-0.7l1-1.8c0-0.1,0.1-0.2,0.2-0.3l0.9-1.6c0.1-0.1,0.1-0.2,0.2-0.3l1-1.7
		c0.1-0.2,0.3-0.5,0.4-0.6c0.1-0.2,0.3-0.5,0.4-0.7l1-1.7c0.1-0.1,0.2-0.3,0.2-0.4l0.8-1.3c0.1-0.2,0.4-0.6,0.5-0.8
		c0.4-0.6,1.1-1.7,1.5-2.2c0-0.2,0.1-0.5,0.2-0.7l0.8-1.6c0.1-0.1,0.2-0.4,0.3-0.5l0.8-1.2c0.1-0.2,0.4-0.6,0.5-0.8
		c0.4-0.6,1.1-1.7,1.4-2.2c0.1-0.2,0.1-0.5,0.2-0.6l0.9-1.6c0-0.1,0.1-0.2,0.2-0.3l1-1.7c0.1-0.2,0.3-0.4,0.3-0.6
		c0.1-0.2,0.3-0.5,0.4-0.6l1-1.8c0.1-0.1,0.1-0.2,0.2-0.3l0.9-1.6C124.3,203.4,124.4,203.3,124.4,203.3z"/>
</g>
<g id="_x23_fccd48ff">
	<path class="st1" d="M126.6,200c32.5-0.1,65,0,97.5-0.1c26.9,0.1,53.8-0.2,80.6,0.1c0.5,1,1.1,2,1.6,3c0.1,0.1,0.2,0.4,0.3,0.5
		c2.6,4.5,5.2,9,7.8,13.6c0,0.1,0.1,0.2,0.2,0.3c5,8.6,9.9,17.1,14.8,25.7c0,0.1,0.1,0.2,0.2,0.3c0.9,1.5,1.8,3.1,2.7,4.6
		c0.1,0.1,0.2,0.4,0.3,0.5c1.3,2.2,2.5,4.4,3.8,6.6c0,0.1,0.1,0.2,0.2,0.3c1.3,2.2,2.5,4.4,3.8,6.6c0.1,0.1,0.2,0.4,0.3,0.5
		c1.3,2.1,2.5,4.3,3.7,6.5c0.1,0.1,0.2,0.4,0.3,0.5c11.9,20.6,23.8,41.3,35.8,61.9c-1.4,6,1.9,12,0.1,18
		c-1.1,16.5-7.3,32.5-17.6,45.4c-3.3,3.6-0.1,8.6-0.5,12.9c-3.6,4.4-8.2,7.6-12.6,11.1c0,3.3,0,6.6-0.1,9.9
		c-3.9,2.6-8.3,4.1-12.3,6.5c-0.4,1.3-0.9,2.7-1.3,4c-3.2,1.5-6.6,2.5-9.7,4c-12.6-3.6-25-7.6-37.5-11.3
		c-11.6-3.8-23.6-6.9-35.1-11.1l-0.7-1.2c-0.1-0.1-0.2-0.3-0.2-0.4l-1-1.6c-0.1-0.2-0.3-0.5-0.4-0.7c-0.1-0.1-0.3-0.4-0.3-0.6
		c-0.7-1.3-1.4-2.5-1.9-3.9l-0.1-0.1l-0.1-0.1c-0.4-0.7-1.3-2.1-1.8-2.8c0-0.1-0.1-0.2-0.2-0.3l-0.3-0.5c-0.2-0.3-0.5-0.9-0.7-1.2
		c-0.4-0.7-1.3-2.2-1.7-2.9c-0.1-0.2-0.3-0.6-0.4-0.7l-0.6-1c-0.1-0.1-0.2-0.4-0.3-0.5l-1-1.7c0-0.1-0.1-0.2-0.2-0.3l-1-1.8
		c-0.1-0.2-0.3-0.5-0.4-0.6c-0.1-0.2-0.3-0.5-0.4-0.7l-0.8-1.5c-0.1-0.2-0.3-0.5-0.4-0.7l-0.6-1.1c-0.1-0.2-0.3-0.5-0.4-0.6
		c-0.4-0.7-1.2-2.1-1.6-2.9c0-0.1-0.1-0.3-0.2-0.3l-0.3-0.5c-0.2-0.3-0.6-0.8-0.8-1.1c-1-1.7-1.9-3.4-2.8-5.1c0-0.1-0.1-0.3-0.2-0.3
		l-0.3-0.5c-0.2-0.3-0.6-0.8-0.8-1.1c-0.4-0.8-1.3-2.4-1.8-3.2c0-0.1-0.1-0.3-0.2-0.3l-0.3-0.5c-0.2-0.3-0.6-1-0.8-1.3l-0.9-1.5
		c-0.1-0.1-0.3-0.4-0.3-0.6c-0.4-0.7-1.1-2-1.5-2.6c-0.1-0.2-0.3-0.5-0.4-0.6c-0.7-1.1-1.3-2.3-2-3.4c0-0.1-0.2-0.3-0.2-0.4l-1-1.6
		c-0.1-0.2-0.3-0.5-0.4-0.6c-0.1-0.1-0.3-0.5-0.4-0.6l-1-1.8c-0.1-0.1-0.1-0.3-0.2-0.3l-0.8-1.5c-0.1-0.1-0.2-0.4-0.3-0.5
		c-0.4-0.7-1.1-2-1.5-2.7c-0.1-0.1-0.2-0.4-0.3-0.5c-0.6-1-1.2-2.1-1.8-3.1c-27.7-48.1-55.5-96.2-83.3-144.3c-1.7-3-3.3-6.1-5.4-8.9
		l-0.1-0.4L126.6,200z"/>
</g>
<g id="_x23_089156ff">
	<path class="st2" d="M126,200.5l0.6,0l0.1,0.4l-0.7,0.1L126,200.5z"/>
	<path class="st2" d="M126.6,200.9c2.1,2.8,3.7,5.9,5.4,8.9c27.8,48.1,55.6,96.2,83.3,144.3c-12.8,22.4-25.8,44.7-38.7,67
		c-1.7-10.7-5-21.1-7-31.7c-3.2-11.4-5-23.2-8.3-34.6c-3.8-18.4-8.4-36.6-12.6-55c-6.3-26.7-12.4-53.5-18.4-80.3
		C129,213.4,127.2,207.3,126.6,200.9z"/>
	<path class="st2" d="M124.3,203.5c0,0,0.1-0.2,0.1-0.2C124.4,203.3,124.3,203.4,124.3,203.5z"/>
	<path class="st2" d="M123.1,205.4c0.1-0.1,0.1-0.2,0.2-0.3C123.3,205.2,123.2,205.3,123.1,205.4z"/>
	<path class="st2" d="M121.8,207.8c0.1-0.2,0.3-0.5,0.4-0.6C122.1,207.3,121.9,207.6,121.8,207.8z"/>
	<path class="st2" d="M121.4,208.4c0.1-0.2,0.3-0.4,0.3-0.6C121.7,208,121.5,208.3,121.4,208.4z"/>
	<path class="st2" d="M120.3,210.4c0-0.1,0.1-0.2,0.2-0.3C120.4,210.2,120.3,210.4,120.3,210.4z"/>
	<path class="st2" d="M119.2,212.7c0.1-0.2,0.1-0.5,0.2-0.6C119.3,212.2,119.2,212.6,119.2,212.7z"/>
	<path class="st2" d="M117.8,214.9c0.4-0.6,1.1-1.7,1.4-2.2C118.8,213.3,118.1,214.4,117.8,214.9z"/>
	<path class="st2" d="M117.3,215.7c0.1-0.2,0.4-0.6,0.5-0.8C117.6,215.1,117.4,215.5,117.3,215.7z"/>
	<path class="st2" d="M116.2,217.4c0.1-0.1,0.2-0.4,0.3-0.5C116.4,217.1,116.3,217.3,116.2,217.4z"/>
	<path class="st2" d="M115.2,219.7c0-0.2,0.1-0.5,0.2-0.7C115.3,219.2,115.2,219.6,115.2,219.7z"/>
	<path class="st2" d="M113.7,221.9c0.4-0.6,1.1-1.7,1.5-2.2C114.8,220.3,114.1,221.4,113.7,221.9z"/>
	<path class="st2" d="M113.2,222.7c0.1-0.2,0.4-0.6,0.5-0.8C113.6,222.1,113.4,222.5,113.2,222.7z"/>
	<path class="st2" d="M112.2,224.4c0.1-0.1,0.2-0.3,0.2-0.4C112.4,224.1,112.2,224.3,112.2,224.4z"/>
	<path class="st2" d="M110.8,226.8c0.1-0.2,0.3-0.5,0.4-0.7C111.1,226.3,110.9,226.6,110.8,226.8z"/>
	<path class="st2" d="M110.5,227.4c0.1-0.2,0.3-0.5,0.4-0.6C110.7,227,110.6,227.3,110.5,227.4z"/>
	<path class="st2" d="M109.3,229.4c0.1-0.1,0.1-0.2,0.2-0.3C109.4,229.2,109.3,229.4,109.3,229.4z"/>
	<path class="st2" d="M108.2,231.4c0-0.1,0.1-0.2,0.2-0.3C108.3,231.2,108.2,231.3,108.2,231.4z"/>
	<path class="st2" d="M106.8,233.8c0.1-0.2,0.3-0.5,0.4-0.7C107.1,233.3,106.9,233.6,106.8,233.8z"/>
	<path class="st2" d="M106.4,234.4c0.1-0.2,0.3-0.5,0.4-0.7C106.7,233.9,106.5,234.3,106.4,234.4z"/>
	<path class="st2" d="M105.2,236.4c0-0.1,0.1-0.2,0.1-0.3C105.4,236.2,105.3,236.4,105.2,236.4z"/>
	<path class="st2" d="M104.2,238.8c0-0.2,0.1-0.5,0.2-0.7C104.3,238.3,104.2,238.6,104.2,238.8z"/>
	<path class="st2" d="M102.7,241c0.4-0.6,1.1-1.7,1.5-2.2C103.8,239.3,103.1,240.4,102.7,241z"/>
	<path class="st2" d="M102.3,241.8c0.1-0.2,0.4-0.6,0.5-0.8C102.6,241.2,102.4,241.6,102.3,241.8z"/>
	<path class="st2" d="M101,244c0.1-0.3,0.4-0.9,0.6-1.1C101.4,243.2,101.1,243.7,101,244z"/>
	<path class="st2" d="M100,245.9c0.1-0.2,0.4-0.6,0.5-0.8C100.4,245.3,100.1,245.7,100,245.9z"/>
	<path class="st2" d="M99.4,246.7c0.1-0.2,0.4-0.6,0.6-0.8C99.8,246.1,99.6,246.4,99.4,246.7z"/>
	<path class="st2" d="M98.3,248.5c0.1-0.2,0.4-0.6,0.5-0.8C98.6,247.8,98.4,248.3,98.3,248.5z"/>
	<path class="st2" d="M96.9,251.1c0.1-0.2,0.3-0.7,0.4-0.9C97.3,250.4,97.1,250.8,96.9,251.1z"/>
	<path class="st2" d="M96,252.9c0.1-0.2,0.4-0.6,0.5-0.8C96.3,252.3,96.1,252.7,96,252.9z"/>
	<path class="st2" d="M95.4,253.6c0.1-0.2,0.4-0.6,0.6-0.8C95.8,253.1,95.6,253.4,95.4,253.6z"/>
	<path class="st2" d="M94.1,255.8c0.2-0.3,0.5-0.9,0.7-1.2C94.6,254.9,94.2,255.5,94.1,255.8z"/>
	<path class="st2" d="M93.2,257.7c0.1-0.2,0.3-0.6,0.4-0.8C93.4,257.1,93.3,257.5,93.2,257.7z"/>
	<path class="st2" d="M91.8,260c0.3-0.6,1-1.7,1.4-2.2C92.8,258.3,92.1,259.4,91.8,260z"/>
	<path class="st2" d="M91.3,260.8c0.1-0.2,0.4-0.6,0.6-0.8C91.7,260.1,91.4,260.6,91.3,260.8z"/>
	<path class="st2" d="M90.2,262.5c0.1-0.1,0.2-0.4,0.3-0.5C90.4,262.1,90.3,262.3,90.2,262.5z"/>
	<path class="st2" d="M89.1,264.7c0.1-0.1,0.2-0.4,0.3-0.6C89.3,264.3,89.2,264.6,89.1,264.7z"/>
	<path class="st2" d="M87.7,267.1c0.4-0.6,1.1-1.8,1.4-2.4l0.1,1.2C88.8,266.2,88.1,266.8,87.7,267.1z"/>
	<path class="st2" d="M87.3,267.7c0.1-0.1,0.3-0.4,0.4-0.6C87.6,267.3,87.4,267.6,87.3,267.7z"/>
	<path class="st2" d="M86,270c0.2-0.4,0.5-1.2,0.7-1.6C86.6,268.9,86.2,269.6,86,270z"/>
	<path class="st2" d="M85,271.9c0.1-0.2,0.4-0.6,0.5-0.8C85.3,271.3,85.1,271.7,85,271.9z"/>
	<path class="st2" d="M84.4,272.6c0.1-0.2,0.4-0.6,0.6-0.8C84.8,272.1,84.6,272.5,84.4,272.6z"/>
	<path class="st2" d="M83.3,274.4c0.1-0.2,0.4-0.6,0.5-0.8C83.6,273.8,83.4,274.2,83.3,274.4z"/>
	<path class="st2" d="M82.1,276.5c0.1-0.1,0.2-0.3,0.2-0.4C82.3,276.2,82.1,276.4,82.1,276.5z"/>
	<path class="st2" d="M81,278.4c0.1-0.1,0.2-0.4,0.3-0.6C81.3,278,81.1,278.3,81,278.4z"/>
	<path class="st2" d="M79.1,281.7c0.1-0.1,0.2-0.4,0.3-0.5C79.4,281.3,79.2,281.5,79.1,281.7z"/>
	<path class="st2" d="M78.1,283.5c0.1-0.2,0.3-0.5,0.4-0.6C78.3,283,78.2,283.4,78.1,283.5z"/>
	<path class="st2" d="M76.8,285.8c0.1-0.2,0.3-0.6,0.5-0.8C77.1,285.2,76.9,285.6,76.8,285.8z"/>
	<path class="st2" d="M76.4,286.4c0.1-0.2,0.3-0.5,0.4-0.7C76.7,285.9,76.5,286.3,76.4,286.4z"/>
	<path class="st2" d="M75.2,288.4c0-0.1,0.1-0.2,0.2-0.3C75.3,288.2,75.3,288.3,75.2,288.4z"/>
	<path class="st2" d="M74.2,290.8c0-0.2,0.1-0.5,0.2-0.7C74.3,290.2,74.2,290.6,74.2,290.8z"/>
	<path class="st2" d="M72.7,292.9c0.4-0.5,1.1-1.6,1.5-2.2C73.8,291.3,73.1,292.4,72.7,292.9z"/>
	<path class="st2" d="M72.2,293.7c0.1-0.2,0.4-0.6,0.5-0.8C72.6,293.1,72.3,293.5,72.2,293.7z"/>
	<path class="st2" d="M71.2,295.4c0.1-0.1,0.2-0.4,0.3-0.5C71.4,295,71.3,295.3,71.2,295.4z"/>
	<path class="st2" d="M69.8,297.8c0.1-0.2,0.3-0.5,0.4-0.7C70.1,297.3,69.9,297.7,69.8,297.8z"/>
	<path class="st2" d="M69.4,298.5c0.1-0.2,0.3-0.5,0.4-0.6C69.7,298,69.5,298.3,69.4,298.5z"/>
	<path class="st2" d="M68.3,300.4c0-0.1,0.1-0.2,0.2-0.3C68.4,300.2,68.3,300.4,68.3,300.4z"/>
	<path class="st2" d="M67.2,302.3c0-0.1,0.1-0.2,0.1-0.2C67.3,302.2,67.2,302.3,67.2,302.3z"/>
	<path class="st2" d="M173.9,425.7c0.2-0.3,0.5-0.8,0.7-1.1C174.4,424.9,174.1,425.5,173.9,425.7z"/>
	<path class="st2" d="M173.5,426.5c0-0.1,0.1-0.3,0.2-0.3C173.6,426.3,173.5,426.4,173.5,426.5z"/>
	<path class="st2" d="M171.6,429.9c0.1-0.1,0.2-0.4,0.3-0.5C171.8,429.5,171.7,429.8,171.6,429.9z"/>
	<path class="st2" d="M170.6,431.8c0.1-0.1,0.3-0.4,0.3-0.6C170.8,431.3,170.6,431.6,170.6,431.8z"/>
	<path class="st2" d="M169.5,433.5c0.1-0.1,0.1-0.2,0.2-0.3C169.7,433.3,169.6,433.4,169.5,433.5z"/>
	<path class="st2" d="M168.1,436c0.1-0.2,0.3-0.5,0.4-0.6C168.4,435.5,168.2,435.8,168.1,436z"/>
	<path class="st2" d="M167.8,436.6c0.1-0.2,0.3-0.5,0.4-0.7C168.1,436.1,167.9,436.5,167.8,436.6z"/>
	<path class="st2" d="M166.4,438.9c0.1-0.1,0.2-0.4,0.3-0.5C166.7,438.5,166.5,438.8,166.4,438.9z"/>
	<path class="st2" d="M165.4,440.7c0.1-0.2,0.3-0.6,0.4-0.7C165.7,440.1,165.5,440.5,165.4,440.7z"/>
	<path class="st2" d="M163.5,444c0.1-0.1,0.2-0.4,0.3-0.5C163.7,443.6,163.6,443.8,163.5,444z"/>
	<path class="st2" d="M162.4,445.7c0.1-0.2,0.3-0.6,0.4-0.7C162.8,445.2,162.6,445.6,162.4,445.7z"/>
	<path class="st2" d="M160.6,448.9c0.1-0.1,0.3-0.5,0.4-0.6C160.9,448.5,160.7,448.8,160.6,448.9z"/>
	<path class="st2" d="M159.6,450.8c0.1-0.1,0.2-0.4,0.3-0.5C159.8,450.4,159.6,450.7,159.6,450.8z"/>
	<path class="st2" d="M158.5,452.7c0.1-0.1,0.2-0.4,0.3-0.6C158.7,452.3,158.6,452.6,158.5,452.7z"/>
	<path class="st2" d="M156.5,456c0.1-0.2,0.3-0.5,0.4-0.6C156.8,455.5,156.6,455.8,156.5,456z"/>
	<path class="st2" d="M155.6,457.7c0.1-0.1,0.2-0.3,0.3-0.5C155.8,457.4,155.6,457.6,155.6,457.7z"/>
	<path class="st2" d="M154.5,459.6c0.1-0.1,0.2-0.4,0.3-0.5C154.7,459.3,154.5,459.5,154.5,459.6z"/>
	<path class="st2" d="M152.5,463c0.1-0.1,0.2-0.4,0.3-0.5C152.7,462.6,152.6,462.9,152.5,463z"/>
	<path class="st2" d="M151.5,464.7c0.1-0.2,0.3-0.5,0.4-0.7C151.8,464.2,151.6,464.6,151.5,464.7z"/>
	<path class="st2" d="M149.7,467.8c0.1-0.1,0.2-0.4,0.3-0.5C149.9,467.5,149.8,467.7,149.7,467.8z"/>
	<path class="st2" d="M148.6,469.7c0.1-0.1,0.2-0.3,0.2-0.4C148.8,469.4,148.7,469.6,148.6,469.7z"/>
	<path class="st2" d="M147.5,471.6c0.1-0.1,0.2-0.4,0.3-0.5C147.7,471.3,147.6,471.5,147.5,471.6z"/>
	<path class="st2" d="M145.5,475c0.1-0.2,0.3-0.5,0.4-0.7C145.8,474.4,145.6,474.8,145.5,475z"/>
	<path class="st2" d="M144.6,476.6c0.1-0.1,0.2-0.4,0.3-0.6C144.9,476.2,144.7,476.5,144.6,476.6z"/>
	<path class="st2" d="M143.3,479c0.1-0.1,0.3-0.4,0.3-0.6C143.5,478.6,143.4,478.9,143.3,479z"/>
	<path class="st2" d="M142.9,479.6c0.1-0.1,0.2-0.4,0.3-0.6C143.2,479.1,143,479.4,142.9,479.6z"/>
</g>
<g id="_x23_10985bff">
	<path class="st3" d="M306.3,203.1c0.1,0.1,0.2,0.4,0.3,0.5C306.5,203.5,306.4,203.2,306.3,203.1z"/>
	<path class="st3" d="M314.4,217.2c0,0.1,0.1,0.2,0.2,0.3C314.5,217.5,314.5,217.3,314.4,217.2z"/>
	<path class="st3" d="M329.4,243.2c0,0.1,0.1,0.2,0.2,0.3C329.6,243.4,329.5,243.3,329.4,243.2z"/>
	<path class="st3" d="M332.3,248.1c0.1,0.1,0.2,0.4,0.3,0.5C332.5,248.5,332.4,248.3,332.3,248.1z"/>
	<path class="st3" d="M336.4,255.3c0,0.1,0.1,0.2,0.2,0.3C336.5,255.5,336.5,255.3,336.4,255.3z"/>
	<path class="st3" d="M340.4,262.1c0.1,0.1,0.2,0.4,0.3,0.5C340.6,262.5,340.4,262.3,340.4,262.1z"/>
	<path class="st3" d="M344.4,269.1c0.1,0.1,0.2,0.4,0.3,0.5C344.6,269.5,344.5,269.2,344.4,269.1z"/>
</g>
<g id="_x23_f9c941ff">
	<path class="st4" d="M380.5,331.5c17.4,30.1,34.9,60.2,52.1,90.4c0.1,0.1,0.2,0.4,0.3,0.5c0.4,0.7,1.2,2,1.6,2.6
		c0.1,0.1,0.2,0.4,0.3,0.5l0.8,1.4c0.1,0.1,0.1,0.3,0.2,0.4l1,1.7c0.1,0.2,0.3,0.5,0.4,0.7c0.1,0.1,0.3,0.5,0.4,0.6l1,1.7
		c0,0.1,0.1,0.2,0.2,0.3l1,1.7c0,0.1,0.1,0.2,0.2,0.3l1,1.7c0.1,0.2,0.3,0.5,0.4,0.7c0.1,0.2,0.3,0.5,0.4,0.7l1,1.8
		c0.1,0.4,0.4,1,0.6,1.4l0.3,0.5l0.1,0.3l0.2,0.3l0.6,0.9c0.2,0.3,0.6,1,0.8,1.3c0.1,0.2,0.4,0.6,0.5,0.8l0.7,1.1
		c0.2,0.4,0.6,1.4,0.8,1.8l0.3,0.5l0.1,0.2l0.1,0.1c0.4,0.6,1.3,2,1.8,2.6c0.1,0.2,0.3,0.5,0.5,0.7l0.6,1c0.1,0.2,0.3,0.5,0.4,0.6
		l1,1.8c0.1,0.2,0.3,0.5,0.4,0.6s0.3,0.5,0.4,0.6l1,1.7c0,0.1,0.1,0.2,0.2,0.3l0.9,1.6c0.1,0.1,0.2,0.3,0.2,0.4l0.9,1.6
		c0.1,0.2,0.3,0.5,0.4,0.7c0.1,0.2,0.3,0.5,0.4,0.6c0.7,1.2,1.5,2.5,2.1,3.8c0.1,0.2,0.3,0.6,0.4,0.8l0.5,1c0.1,0.2,0.4,0.6,0.5,0.8
		c0.2,0.2,0.4,0.6,0.6,0.8l0.7,1c0.1,0.2,0.4,0.6,0.5,0.8l1,1.8c0.1,0.2,0.3,0.5,0.4,0.6c0.1,0.2,0.3,0.5,0.4,0.6l1,1.7
		c0,0.1,0.1,0.2,0.2,0.3l1,1.7c0,0.1,0.1,0.2,0.2,0.3l1,1.7c0.1,0.2,0.3,0.5,0.4,0.7c0.1,0.2,0.3,0.5,0.4,0.7l1,1.7
		c0,0.1,0.1,0.2,0.1,0.3l1.1,2l0,0.9c-25-7.2-49.6-15.7-74.7-22.6c-22.8-7.4-45.8-14-68.5-21.4c3.2-1.5,6.6-2.5,9.7-4
		c0.4-1.4,0.8-2.7,1.3-4c4-2.5,8.4-4,12.3-6.5c0.2-3.3,0.1-6.6,0.1-9.9c4.4-3.5,9-6.8,12.6-11.1c0.4-4.3-2.9-9.3,0.5-12.9
		c10.2-12.9,16.5-28.9,17.6-45.4C382.4,343.5,379.1,337.5,380.5,331.5z"/>
	<path class="st4" d="M469.8,487.3l0.5,0l0.3,0.8l-0.6,0L469.8,487.3z"/>
</g>
<g id="_x23_e3b73aff">
	<path class="st5" d="M217.2,357.2c0.1,0.1,0.2,0.4,0.3,0.5C217.5,357.6,217.3,357.3,217.2,357.2z"/>
	<path class="st5" d="M219.1,360.4c0.1,0.1,0.2,0.4,0.3,0.5C219.3,360.8,219.1,360.5,219.1,360.4z"/>
	<path class="st5" d="M220.2,362.4c0,0.1,0.1,0.3,0.2,0.3C220.3,362.6,220.2,362.4,220.2,362.4z"/>
	<path class="st5" d="M221.4,364.4c0.1,0.1,0.3,0.5,0.4,0.6C221.6,364.9,221.5,364.6,221.4,364.4z"/>
	<path class="st5" d="M221.7,365c0.1,0.2,0.3,0.5,0.4,0.6C222,365.5,221.8,365.2,221.7,365z"/>
	<path class="st5" d="M223,367.3c0,0.1,0.2,0.3,0.2,0.4C223.2,367.6,223.1,367.4,223,367.3z"/>
	<path class="st5" d="M225.2,371.1c0.1,0.2,0.3,0.5,0.4,0.6C225.5,371.6,225.3,371.3,225.2,371.1z"/>
	<path class="st5" d="M227.1,374.4c0.1,0.1,0.3,0.4,0.3,0.6C227.4,374.8,227.2,374.5,227.1,374.4z"/>
	<path class="st5" d="M228.3,376.4c0.2,0.3,0.6,1,0.8,1.3C228.9,377.4,228.5,376.7,228.3,376.4z"/>
	<path class="st5" d="M229.4,378.2c0,0.1,0.1,0.3,0.2,0.3C229.5,378.4,229.4,378.3,229.4,378.2z"/>
	<path class="st5" d="M231.3,381.7c0.2,0.3,0.6,0.8,0.8,1.1C231.9,382.5,231.5,381.9,231.3,381.7z"/>
	<path class="st5" d="M232.3,383.2c0,0.1,0.1,0.3,0.2,0.3C232.5,383.5,232.4,383.3,232.3,383.2z"/>
	<path class="st5" d="M235.3,388.6c0.2,0.3,0.6,0.8,0.8,1.1C235.9,389.4,235.5,388.9,235.3,388.6z"/>
	<path class="st5" d="M236.4,390.2c0,0.1,0.1,0.3,0.2,0.3C236.5,390.4,236.4,390.3,236.4,390.2z"/>
	<path class="st5" d="M238.1,393.4c0.1,0.1,0.3,0.4,0.4,0.6C238.4,393.8,238.2,393.5,238.1,393.4z"/>
	<path class="st5" d="M239.1,395.1c0.1,0.2,0.3,0.5,0.4,0.7C239.4,395.6,239.2,395.3,239.1,395.1z"/>
	<path class="st5" d="M240.3,397.3c0.1,0.2,0.3,0.6,0.4,0.7C240.6,397.8,240.4,397.5,240.3,397.3z"/>
	<path class="st5" d="M240.7,398c0.1,0.1,0.3,0.5,0.4,0.6C241,398.5,240.8,398.2,240.7,398z"/>
	<path class="st5" d="M242.1,400.4c0,0.1,0.1,0.2,0.2,0.3C242.3,400.6,242.2,400.5,242.1,400.4z"/>
	<path class="st5" d="M243.3,402.4c0.1,0.1,0.2,0.4,0.3,0.5C243.5,402.8,243.3,402.5,243.3,402.4z"/>
	<path class="st5" d="M244.2,403.9c0.1,0.2,0.3,0.6,0.4,0.7C244.5,404.5,244.3,404.1,244.2,403.9z"/>
	<path class="st5" d="M246.4,407.6c0.2,0.3,0.5,0.9,0.7,1.2C246.9,408.5,246.5,407.9,246.4,407.6z"/>
	<path class="st5" d="M247.3,409.2c0.1,0.1,0.2,0.3,0.2,0.3C247.5,409.5,247.4,409.3,247.3,409.2z"/>
	<path class="st5" d="M249.3,412.3l0.1,0.1l0.1,0.1C249.4,412.5,249.3,412.4,249.3,412.3z"/>
	<path class="st5" d="M251.4,416.4c0.1,0.1,0.3,0.4,0.3,0.6C251.6,416.9,251.5,416.6,251.4,416.4z"/>
	<path class="st5" d="M251.7,417c0.1,0.2,0.3,0.5,0.4,0.7C252,417.5,251.8,417.2,251.7,417z"/>
	<path class="st5" d="M253.1,419.3c0,0.1,0.1,0.3,0.2,0.4C253.2,419.6,253.1,419.4,253.1,419.3z"/>
	<path class="st5" d="M253.9,420.9c11.5,4.2,23.5,7.3,35.1,11.1c12.5,3.7,24.9,7.7,37.5,11.3c22.8,7.3,45.8,14,68.5,21.4
		c-0.3,4.9,0.6,9.9-0.6,14.6c-0.9,4.6-6.5,5.4-8.8,9.1c-30.8,0-61.5,0.1-92.3,0l-0.7-0.1C280,465.7,266.8,443.4,253.9,420.9z"/>
</g>
<g id="_x23_e8b835ff">
	<path class="st6" d="M432.6,422c0.1,0.1,0.2,0.4,0.3,0.5C432.8,422.4,432.7,422.1,432.6,422z"/>
	<path class="st6" d="M434.5,425.1c0.1,0.1,0.2,0.4,0.3,0.5C434.7,425.5,434.6,425.3,434.5,425.1z"/>
	<path class="st6" d="M435.6,427c0.1,0.1,0.1,0.3,0.2,0.4C435.8,427.3,435.7,427.1,435.6,427z"/>
	<path class="st6" d="M436.8,429.1c0.1,0.2,0.3,0.5,0.4,0.7C437.1,429.7,436.9,429.3,436.8,429.1z"/>
	<path class="st6" d="M437.2,429.8c0.1,0.1,0.3,0.5,0.4,0.6C437.5,430.3,437.3,430,437.2,429.8z"/>
	<path class="st6" d="M438.6,432.1c0,0.1,0.1,0.2,0.2,0.3C438.7,432.4,438.6,432.2,438.6,432.1z"/>
	<path class="st6" d="M439.7,434.1c0,0.1,0.1,0.2,0.2,0.3C439.8,434.3,439.7,434.2,439.7,434.1z"/>
	<path class="st6" d="M440.8,436.1c0.1,0.2,0.3,0.5,0.4,0.7C441.1,436.6,440.9,436.2,440.8,436.1z"/>
	<path class="st6" d="M441.2,436.7c0.1,0.2,0.3,0.5,0.4,0.7C441.5,437.2,441.3,436.9,441.2,436.7z"/>
	<path class="st6" d="M442.6,439.2c0.1,0.4,0.4,1,0.6,1.4C443,440.2,442.8,439.5,442.6,439.2z"/>
	<path class="st6" d="M443.5,441.1c0.1,0.1,0.3,0.4,0.3,0.6l-0.2-0.3L443.5,441.1z"/>
	<path class="st6" d="M444.4,442.6c0.2,0.3,0.6,1,0.8,1.3C445,443.6,444.6,442.9,444.4,442.6z"/>
	<path class="st6" d="M445.2,443.9c0.1,0.2,0.4,0.6,0.5,0.8C445.6,444.5,445.3,444.1,445.2,443.9z"/>
	<path class="st6" d="M446.4,445.7c0.2,0.4,0.6,1.4,0.8,1.8C447,447.1,446.6,446.2,446.4,445.7z"/>
	<path class="st6" d="M447.5,448.1c0,0.1,0.1,0.3,0.2,0.3l-0.1-0.1L447.5,448.1z"/>
	<path class="st6" d="M449.4,451c0.1,0.2,0.3,0.5,0.5,0.7C449.8,451.6,449.5,451.2,449.4,451z"/>
	<path class="st6" d="M450.5,452.8c0.1,0.2,0.3,0.5,0.4,0.6C450.8,453.2,450.6,452.9,450.5,452.8z"/>
	<path class="st6" d="M451.9,455.2c0.1,0.2,0.3,0.5,0.4,0.6C452.1,455.6,451.9,455.3,451.9,455.2z"/>
	<path class="st6" d="M452.2,455.8c0.1,0.2,0.3,0.5,0.4,0.6C452.5,456.3,452.3,456,452.2,455.8z"/>
	<path class="st6" d="M453.6,458.1c0,0.1,0.1,0.2,0.2,0.3C453.7,458.4,453.6,458.2,453.6,458.1z"/>
	<path class="st6" d="M454.7,460c0.1,0.1,0.2,0.3,0.2,0.4C454.8,460.3,454.7,460.1,454.7,460z"/>
	<path class="st6" d="M455.8,462.1c0.1,0.2,0.3,0.5,0.4,0.7C456.1,462.6,455.9,462.2,455.8,462.1z"/>
	<path class="st6" d="M456.3,462.8c0.1,0.2,0.3,0.5,0.4,0.6C456.5,463.3,456.3,462.9,456.3,462.8z"/>
	<path class="st6" d="M395.1,464.6c25.1,6.9,49.7,15.5,74.7,22.6l0.2,0.8c-28.1,0.6-56.2,0.1-84.3,0.3c2.3-3.7,7.9-4.4,8.8-9.1
		C395.7,474.5,394.7,469.5,395.1,464.6z"/>
	<path class="st6" d="M458.7,467.2c0.1,0.2,0.3,0.6,0.4,0.8C459,467.8,458.8,467.4,458.7,467.2z"/>
	<path class="st6" d="M459.6,469.1c0.1,0.2,0.4,0.6,0.5,0.8C459.9,469.7,459.7,469.3,459.6,469.1z"/>
	<path class="st6" d="M460,469.9c0.2,0.2,0.4,0.6,0.6,0.8C460.5,470.5,460.2,470.1,460,469.9z"/>
	<path class="st6" d="M461.3,471.6c0.1,0.2,0.4,0.6,0.5,0.8C461.7,472.2,461.5,471.8,461.3,471.6z"/>
	<path class="st6" d="M462.8,474.1c0.1,0.2,0.3,0.5,0.4,0.6C463.1,474.6,462.9,474.3,462.8,474.1z"/>
	<path class="st6" d="M463.2,474.8c0.1,0.2,0.3,0.5,0.4,0.6C463.5,475.3,463.3,474.9,463.2,474.8z"/>
	<path class="st6" d="M464.6,477.1c0,0.1,0.1,0.2,0.2,0.3C464.7,477.4,464.6,477.2,464.6,477.1z"/>
	<path class="st6" d="M465.7,479.1c0,0.1,0.1,0.2,0.2,0.3C465.8,479.3,465.7,479.2,465.7,479.1z"/>
	<path class="st6" d="M466.8,481c0.1,0.2,0.3,0.5,0.4,0.7C467.1,481.6,466.9,481.2,466.8,481z"/>
	<path class="st6" d="M467.2,481.7c0.1,0.2,0.3,0.5,0.4,0.7C467.5,482.2,467.3,481.9,467.2,481.7z"/>
	<path class="st6" d="M468.6,484.1c0,0.1,0.1,0.2,0.1,0.3C468.7,484.3,468.6,484.2,468.6,484.1z"/>
	<path class="st6" d="M469.8,486.4c0.1,0.2,0.4,0.7,0.5,0.9l-0.5,0L469.8,486.4z"/>
</g>
<g id="_x23_296ad9ff">
	<path class="st7" d="M107.1,541c10.3-17.6,20.1-35.5,30.8-52.9c51.6,0.2,103.3-0.3,154.9,0.2l0.7,0.1c-26.1,0.8-52.3-0.2-78.4,0.4
		c-5,3.2-8.3,8.4-13.1,11.9c-4.4,3.2-7.7,7.7-11.9,11.2c-5.9,4.4-10.3,10.4-16.4,14.7c-7,7.4-15,13.6-22,20.9
		c-5.3,4-9.7,9-14.6,13.5c-5.4,3.9-9.5,9.2-14.6,13.5c-0.1,0.1-0.4,0.3-0.5,0.5c-0.3,0.2-0.8,0.6-1.1,0.9c-0.1,0.1-0.4,0.3-0.5,0.4
		c-4,3.1-7,7.1-10.9,10.3c-0.1,0.1-0.4,0.3-0.5,0.4c-0.1,0.1-0.4,0.3-0.5,0.4c-5.7,4.7-10.3,10.6-16.2,14.9
		c-6,6-12.8,11.1-18.5,17.4c-8.4,6.9-15.7,15.1-24.4,21.8c2.2-4.7,5-9,7.5-13.5C73.6,598.9,90.4,569.9,107.1,541z"/>
	<path class="st7" d="M48.9,642c0.1-0.2,0.3-0.5,0.4-0.6l0,0.7L48.9,642z"/>
</g>
<g id="_x23_2a71e9ff">
	<path class="st8" d="M293.4,488.3c30.8,0.1,61.5,0,92.3,0c28.1-0.2,56.2,0.4,84.3-0.3l0.6,0l0.4,0.1v0.1
		c-29.7,51.3-59.2,102.6-88.9,153.9c-110.9,0-221.9,0.1-332.8-0.1l0-0.7c8.7-6.6,16-14.8,24.4-21.8c5.7-6.3,12.5-11.4,18.5-17.4
		c6-4.4,10.5-10.3,16.2-14.9c0.1-0.1,0.4-0.3,0.5-0.4c0.1-0.1,0.4-0.3,0.5-0.4c3.9-3.2,6.9-7.2,10.9-10.3c0.1-0.1,0.4-0.3,0.5-0.4
		c0.3-0.2,0.8-0.7,1.1-0.9c0.1-0.1,0.4-0.3,0.5-0.5c5-4.3,9.2-9.6,14.6-13.5c4.9-4.4,9.3-9.4,14.6-13.5c7-7.3,15.1-13.5,22-20.9
		c6-4.3,10.4-10.3,16.4-14.7c4.2-3.5,7.5-8,11.9-11.2c4.8-3.5,8.1-8.7,13.1-11.9C241.1,488.1,267.3,489.2,293.4,488.3z"/>
</g>
<g id="_x23_286ee6ff">
	<path class="st9" d="M122,575c0.1-0.1,0.4-0.3,0.5-0.5C122.4,574.6,122.1,574.8,122,575z"/>
	<path class="st9" d="M120.9,575.8c0.3-0.2,0.8-0.7,1.1-0.9C121.7,575.2,121.2,575.6,120.9,575.8z"/>
	<path class="st9" d="M120.4,576.2c0.1-0.1,0.4-0.3,0.5-0.4C120.8,575.9,120.6,576.1,120.4,576.2z"/>
	<path class="st9" d="M109,586.9c0.1-0.1,0.4-0.3,0.5-0.4C109.4,586.6,109.1,586.8,109,586.9z"/>
	<path class="st9" d="M108.5,587.3c0.1-0.1,0.4-0.3,0.5-0.4C108.9,587,108.6,587.2,108.5,587.3z"/>
</g>
</svg>
