<?xml version="1.0" encoding="utf-8"?>
<!-- Generator: Adobe Illustrator 16.0.0, SVG Export Plug-In . SVG Version: 6.00 Build 0)  -->
<!DOCTYPE svg PUBLIC "-//W3C//DTD SVG 1.1//EN" "http://www.w3.org/Graphics/SVG/1.1/DTD/svg11.dtd">
<svg version="1.1" id="Layer_1" xmlns="http://www.w3.org/2000/svg" xmlns:xlink="http://www.w3.org/1999/xlink" x="0px" y="0px"
	 width="540.5px" height="440px" viewBox="0 0 540.5 440" enable-background="new 0 0 540.5 440" xml:space="preserve">
<g id="XMLID_1_">
	<g>
		<polygon fill="#444A54" points="119,115 59.47,55.47 380.53,55.47 321,115 		"/>
		<polygon fill="#444A54" points="59.34,384.529 118.74,325 321,325 380.53,384.529 		"/>
		<polygon fill="#444A54" points="325,118.26 383.6,59.53 384.52,380.52 325,321 		"/>
		<polygon fill="#444A54" points="54.54,58.54 115,119 115,321 55.46,380.54 		"/>
		<polygon fill="#444A54" points="316,120 261,175 179,175 124,120 		"/>
		<polygon fill="#444A54" points="123.73,320 178.6,265 261,265 316,320 		"/>
		<polygon fill="#444A54" points="320,316 265,261 265,178.4 320,123.28 		"/>
		<polygon fill="#444A54" points="120,124 175,179 175,261 120,316 		"/>
		<polygon fill="#444A54" points="386,390 436,440 4,440 53.89,390 		"/>
		<polygon fill="#444A54" points="54,50 4,0 436,0 386,50 		"/>
		<polygon fill="#444A54" points="390,53.11 440,3 440,436 390,386 		"/>
		<polygon fill="#444A54" points="0,4 50,54 50,386 0,436 		"/>
	</g>
</g>
<rect x="180" y="180" fill="#FFFFFF" stroke="#444A54" stroke-miterlimit="10" width="80" height="80"/>
<g>
	<rect x="460.5" y="-0.5" fill="#444A54" width="80" height="50"/>
	<rect x="460.5" y="54.5" fill="#444A54" width="80" height="60"/>
	<rect x="460.5" y="119.5" fill="#444A54" width="80" height="55"/>
	<rect x="460.5" y="264.5" fill="#444A54" width="80" height="50"/>
	<rect x="460.5" y="319.5" fill="#444A54" width="80" height="60"/>
	<rect x="460.5" y="384.5" fill="#444A54" width="80" height="55"/>
	<rect x="461" y="180" fill="#FFFFFF" stroke="#444A54" stroke-miterlimit="10" width="80" height="80"/>
</g>
<path fill="none" stroke="#FFFFFF" stroke-width="2" stroke-miterlimit="10" d="M-235.5,41.5"/>
<g>
	<polyline fill="none" stroke="#FFFFFF" stroke-width="2" stroke-miterlimit="10" points="235,286 220,300.5 220,300.5 205,286 	"/>
	<polyline fill="none" stroke="#FFFFFF" stroke-width="4" stroke-miterlimit="10" points="235,347 220,361.5 220,361.5 205,347 	"/>
	<polyline fill="none" stroke="#FFFFFF" stroke-width="6" stroke-miterlimit="10" points="235,407 220,421.5 220,421.5 205,407 	"/>
</g>
<text transform="matrix(1 0 0 1 144.75 226.5)" fill="#FFFFFF" font-family="'Agenda-Bold'" font-size="20">1</text>
<text transform="matrix(1 0 0 1 74.77 226.5)" fill="#FFFFFF" font-family="'Agenda-Bold'" font-size="20">10</text>
<text transform="matrix(1 0 0 1 9.77 226.5)" fill="#FFFFFF" font-family="'Agenda-Bold'" font-size="20">100</text>
<g>
	<polyline fill="none" stroke="#FFFFFF" stroke-width="2" stroke-miterlimit="10" points="288,204.75 302.5,219.75 302.5,219.75 
		288,234.75 	"/>
	<polyline fill="none" stroke="#FFFFFF" stroke-width="2" stroke-miterlimit="10" points="340,204.75 354.5,219.75 354.5,219.75 
		340,234.75 	"/>
	<polyline fill="none" stroke="#FFFFFF" stroke-width="2" stroke-miterlimit="10" points="352,204.75 366.5,219.75 366.5,219.75 
		352,234.75 	"/>
	<polyline fill="none" stroke="#FFFFFF" stroke-width="2" stroke-miterlimit="10" points="398,204.75 412.5,219.75 412.5,219.75 
		398,234.75 	"/>
	<polyline fill="none" stroke="#FFFFFF" stroke-width="2" stroke-miterlimit="10" points="407,204.75 421.5,219.75 421.5,219.75 
		407,234.75 	"/>
	<polyline fill="none" stroke="#FFFFFF" stroke-width="2" stroke-miterlimit="10" points="416,204.75 430.5,219.75 430.5,219.75 
		416,234.75 	"/>
</g>
</svg>
