<?xml version="1.0" encoding="utf-8"?>
<?xml-stylesheet href="../css/style.css" type="text/css"?>
<!-- Generator: Adobe Illustrator 16.0.0, SVG Export Plug-In . SVG Version: 6.00 Build 0)  -->
<!DOCTYPE svg PUBLIC "-//W3C//DTD SVG 1.1//EN" "http://www.w3.org/Graphics/SVG/1.1/DTD/svg11.dtd">
<svg version="1.1" id="control-xy" xmlns="http://www.w3.org/2000/svg" xmlns:xlink="http://www.w3.org/1999/xlink" x="0px" y="0px"
	  viewBox="0 0 440 440" enable-background="new 0 0 440 440" xml:space="preserve">
	<g>
		<polygon fill="#444A54" class="controls control-up range-zero-one" points="261,175 179,175 139,135 301,135 		"/>
		<polygon fill="#444A54" class="controls control-up range-one" points="94,90 346,90 306,130 134,130 		"/>
		<polygon fill="#444A54" class="controls control-up range-ten" points="351,85 89,85 49,45 391,45 		"/>
		<polygon fill="#444A54" class="controls control-up range-hundred" points="436,0 396,40 44,40 4,0 		"/>
		<polygon fill="#444A54" class="controls control-left range-zero-one" points="175,179 175,261 135,301 135,139 		"/>
		<polygon fill="#444A54" class="controls control-left range-one" points="90,346 90,94 130,134 130,306 		"/>
		<polygon fill="#444A54" class="controls control-left range-ten" points="85,89 85,351 44.99,391.01 44.01,48.01 		"/>
		<polygon fill="#444A54" class="controls control-left range-hundred" points="0,436 0,4 40,44 40,396 		"/>
		<polygon fill="#444A54" class="controls control-right range-zero-one" points="305,138.31 305,301 265,261 265,178.4 		"/>
		<polygon fill="#444A54" class="controls control-right range-one" points="350,93.21 350,346 310,306 310,133.3 		"/>
		<polygon fill="#444A54" class="controls control-right range-ten" points="394.01,49.09 394.99,390.99 355,351 355,88.19 		"/>
		<polygon fill="#444A54" class="controls control-right range-hundred" points="440,3 440,436 400,396 400,43.09 		"/>
		<polygon fill="#444A54" class="controls control-down range-zero-one" points="301,305 138.69,305 178.6,265 261,265 		"/>
		<polygon fill="#444A54" class="controls control-down range-one" points="346,350 93.79,350 133.7,310 306,310 		"/>
		<polygon fill="#444A54" class="controls control-down range-hundred" points="436,440 4,440 43.91,400 396,400 		"/>
		<polygon fill="#444A54" class="controls control-down range-ten" points="391,395 48.9,395 88.81,355 351,355 		"/>
	</g>
</svg>
