<?xml version="1.0" encoding="utf-8"?>
<!-- Generator: Adobe Illustrator 16.0.0, SVG Export Plug-In . SVG Version: 6.00 Build 0)  -->
<!DOCTYPE svg PUBLIC "-//W3C//DTD SVG 1.1//EN" "http://www.w3.org/Graphics/SVG/1.1/DTD/svg11.dtd">
<svg version="1.1" id="Layer_1" xmlns="http://www.w3.org/2000/svg" xmlns:xlink="http://www.w3.org/1999/xlink" x="0px" y="0px"
	 width="540.5px" height="440px" viewBox="0 0 540.5 440" enable-background="new 0 0 540.5 440" xml:space="preserve">
<g id="XMLID_1_">
	<g>
		<polygon fill="#444A54" points="119,115 59.47,55.47 380.53,55.47 321,115 		"/>
		<polygon fill="#444A54" points="59.34,384.529 118.74,325 321,325 380.53,384.529 		"/>
		<polygon fill="#444A54" points="325,118.26 383.6,59.53 384.52,380.52 325,321 		"/>
		<polygon fill="#444A54" points="54.54,58.54 115,119 115,321 55.46,380.54 		"/>
		<polygon fill="#444A54" points="316,120 261,175 179,175 124,120 		"/>
		<polygon fill="#444A54" points="123.73,320 178.6,265 261,265 316,320 		"/>
		<polygon fill="#444A54" points="320,316 265,261 265,178.4 320,123.28 		"/>
		<polygon fill="#444A54" points="120,124 175,179 175,261 120,316 		"/>
		<polygon fill="#444A54" points="386,390 436,440 4,440 53.89,390 		"/>
		<polygon fill="#444A54" points="54,50 4,0 436,0 386,50 		"/>
		<polygon fill="#444A54" points="390,53.11 440,3 440,436 390,386 		"/>
		<polygon fill="#444A54" points="0,4 50,54 50,386 0,436 		"/>
	</g>
</g>
<rect x="180" y="180" fill="#FFFFFF" stroke="#444A54" stroke-miterlimit="10" width="80" height="80"/>
<g>
	<rect x="460.5" y="-0.5" fill="#444A54" width="80" height="50"/>
	<rect x="460.5" y="54.5" fill="#444A54" width="80" height="60"/>
	<rect x="460.5" y="119.5" fill="#444A54" width="80" height="55"/>
	<rect x="460.5" y="264.5" fill="#444A54" width="80" height="50"/>
	<rect x="460.5" y="319.5" fill="#444A54" width="80" height="60"/>
	<rect x="460.5" y="384.5" fill="#444A54" width="80" height="55"/>
	<rect x="461" y="180" fill="#FFFFFF" stroke="#444A54" stroke-miterlimit="10" width="80" height="80"/>
</g>
<path fill="none" stroke="#FFFFFF" stroke-width="2" stroke-miterlimit="10" d="M-235.5,41.5"/>
<g>
	<polyline fill="none" stroke="#FFFFFF" stroke-width="2" stroke-miterlimit="10" points="235,289 220,303.5 220,303.5 205,289 	"/>
	<polyline fill="none" stroke="#FFFFFF" stroke-width="2" stroke-miterlimit="10" points="235,341 220,355.5 220,355.5 205,341 	"/>
	<polyline fill="none" stroke="#FFFFFF" stroke-width="2" stroke-miterlimit="10" points="235,353 220,367.5 220,367.5 205,353 	"/>
	<polyline fill="none" stroke="#FFFFFF" stroke-width="2" stroke-miterlimit="10" points="235,399 220,413.5 220,413.5 205,399 	"/>
	<polyline fill="none" stroke="#FFFFFF" stroke-width="2" stroke-miterlimit="10" points="235,408 220,422.5 220,422.5 205,408 	"/>
	<polyline fill="none" stroke="#FFFFFF" stroke-width="2" stroke-miterlimit="10" points="235,417 220,431.5 220,431.5 205,417 	"/>
</g>
<g>
	<polyline fill="none" stroke="#FFFFFF" stroke-width="2" stroke-miterlimit="10" points="205,153 220,138.5 220,138.5 235,153 	"/>
	<polyline fill="none" stroke="#FFFFFF" stroke-width="2" stroke-miterlimit="10" points="205,101 220,86.5 220,86.5 235,101 	"/>
	<polyline fill="none" stroke="#FFFFFF" stroke-width="2" stroke-miterlimit="10" points="205,89 220,74.5 220,74.5 235,89 	"/>
	<polyline fill="none" stroke="#FFFFFF" stroke-width="2" stroke-miterlimit="10" points="205,43 220,28.5 220,28.5 235,43 	"/>
	<polyline fill="none" stroke="#FFFFFF" stroke-width="2" stroke-miterlimit="10" points="205,34 220,19.5 220,19.5 235,34 	"/>
	<polyline fill="none" stroke="#FFFFFF" stroke-width="2" stroke-miterlimit="10" points="205,25 220,10.5 220,10.5 235,25 	"/>
</g>
<g>
	<polyline fill="none" stroke="#FFFFFF" stroke-width="2" stroke-miterlimit="10" points="287,205.75 301.5,220.75 301.5,220.75 
		287,235.75 	"/>
	<polyline fill="none" stroke="#FFFFFF" stroke-width="2" stroke-miterlimit="10" points="339,205.75 353.5,220.75 353.5,220.75 
		339,235.75 	"/>
	<polyline fill="none" stroke="#FFFFFF" stroke-width="2" stroke-miterlimit="10" points="351,205.75 365.5,220.75 365.5,220.75 
		351,235.75 	"/>
	<polyline fill="none" stroke="#FFFFFF" stroke-width="2" stroke-miterlimit="10" points="397,205.75 411.5,220.75 411.5,220.75 
		397,235.75 	"/>
	<polyline fill="none" stroke="#FFFFFF" stroke-width="2" stroke-miterlimit="10" points="406,205.75 420.5,220.75 420.5,220.75 
		406,235.75 	"/>
	<polyline fill="none" stroke="#FFFFFF" stroke-width="2" stroke-miterlimit="10" points="415,205.75 429.5,220.75 429.5,220.75 
		415,235.75 	"/>
</g>
<g>
	<polyline fill="none" stroke="#FFFFFF" stroke-width="2" stroke-miterlimit="10" points="150.25,235.75 135.75,220.75 
		135.75,220.75 150.25,205.75 	"/>
	<polyline fill="none" stroke="#FFFFFF" stroke-width="2" stroke-miterlimit="10" points="98.25,235.75 83.75,220.75 83.75,220.75 
		98.25,205.75 	"/>
	<polyline fill="none" stroke="#FFFFFF" stroke-width="2" stroke-miterlimit="10" points="86.25,235.75 71.75,220.75 71.75,220.75 
		86.25,205.75 	"/>
	<polyline fill="none" stroke="#FFFFFF" stroke-width="2" stroke-miterlimit="10" points="40.25,235.75 25.75,220.75 25.75,220.75 
		40.25,205.75 	"/>
	<polyline fill="none" stroke="#FFFFFF" stroke-width="2" stroke-miterlimit="10" points="31.25,235.75 16.75,220.75 16.75,220.75 
		31.25,205.75 	"/>
	<polyline fill="none" stroke="#FFFFFF" stroke-width="2" stroke-miterlimit="10" points="22.25,235.75 7.75,220.75 7.75,220.75 
		22.25,205.75 	"/>
</g>
</svg>
