<?xml version="1.0" encoding="utf-8"?>
<!-- Generator: Adobe Illustrator 19.0.0, SVG Export Plug-In . SVG Version: 6.00 Build 0)  -->
<svg version="1.1"
	 id="svg2" xmlns:inkscape="http://www.inkscape.org/namespaces/inkscape" xmlns:sodipodi="http://sodipodi.sourceforge.net/DTD/sodipodi-0.dtd" xmlns:svg="http://www.w3.org/2000/svg" xmlns:cc="http://creativecommons.org/ns#" xmlns:dc="http://purl.org/dc/elements/1.1/" xmlns:rdf="http://www.w3.org/1999/02/22-rdf-syntax-ns#" sodipodi:docname="OneDrive logo.svg" inkscape:version="0.48.4 r9939"
	 xmlns="http://www.w3.org/2000/svg" xmlns:xlink="http://www.w3.org/1999/xlink" x="0px" y="0px" viewBox="243 330.2 305.4 180.7"
	 style="enable-background:new 243 330.2 305.4 180.7;" xml:space="preserve">
<style type="text/css">
	.st0{fill:#094AB1;}
</style>
<title  id="title5158">OneDrive logo</title>
<sodipodi:namedview  id="base" showgrid="false" fit-margin-left="1" borderopacity="1.0" fit-margin-top="1" inkscape:cx="642.24502" inkscape:cy="85.011584" inkscape:zoom="1.4" pagecolor="#ffffff" bordercolor="#666666" fit-margin-bottom="1" fit-margin-right="1" inkscape:window-maximized="1" inkscape:window-y="-8" inkscape:current-layer="g3986" inkscape:document-units="px" inkscape:window-height="837" inkscape:window-width="1440" inkscape:window-x="-8" inkscape:pageopacity="0.0" inkscape:pageshadow="2">
	</sodipodi:namedview>
<g id="layer1" transform="translate(296.64282,-173.95523)" inkscape:label="Layer 1" inkscape:groupmode="layer">
	<g id="g3986" transform="translate(222.85714,-11.428576)">
		<path id="path4256" inkscape:connector-curvature="0" class="st0" d="M-177.5,695.2c-18.5-4.6-28.8-19.3-28.8-41.1
			c0-7,0.5-10.3,2.2-14.8c4.3-11,15.6-19.3,30.4-22.3c7.4-1.5,9.7-3.1,9.7-6.9c0-1.2,0.9-4.7,2-7.8c4.9-14.2,13.9-26,23.6-30.9
			c10.1-5.1,15.2-6.2,27.5-6.1c17.4,0.1,26,3.9,38.2,16.6l6.7,7l6-2.1c28.9-10,57.7,7,60.1,35.5l0.6,7.8l5.7,2
			c16.3,5.8,23.9,18.1,22.5,36c-0.9,11.8-6.4,21.1-15.1,25.8l-4.1,2.2l-91,0.2C-151.4,696.4-173.7,696.1-177.5,695.2L-177.5,695.2z"
			/>
		<path id="path4248" inkscape:connector-curvature="0" class="st0" d="M-245.7,682.6c-10.8-2.6-22.2-12.1-27.6-23
			c-3-6.2-3.2-7.1-3.2-18c0-10.4,0.3-12.1,2.7-17.2c5.1-10.9,14.9-18.8,27.1-21.8c2.6-0.7,5-1.7,5.4-2.3c0.4-0.6,0.8-4,0.9-7.5
			c0.9-21.8,15.1-41,35.1-47.1c10.8-3.3,24.3-2.5,36.1,2.2c3.7,1.5,3.3,1.8,11.2-8.5c4.7-6.1,14-13.7,21.7-17.5
			c8.3-4.2,16.9-6.1,27.3-6.1c28.9,0.1,53.7,18.1,62.9,45.7c2.9,8.8,2.8,11.3-0.7,11.3c-1.5,0-5.8,0.9-9.6,1.9l-6.9,1.8l-6.3-6.3
			c-17.7-17.7-46.6-21.5-71.2-9.4c-9.8,4.8-17.7,11.8-23.7,20.8c-4.2,6.5-9.7,18.5-9.7,21.5c0,2.1-1.7,3.2-9,5.6
			c-22.7,7.4-35.9,24.6-35.9,46.6c0,8,2.1,17.8,4.9,23.4c1.1,2.1,1.7,4.1,1.3,4.5C-213.6,683.8-241.8,683.5-245.7,682.6
			L-245.7,682.6z"/>
		<g id="text4313">
		</g>
	</g>
</g>
</svg>
