<?xml version="1.0" encoding="utf-8"?>
<!-- Generator: Adobe Illustrator 19.0.0, SVG Export Plug-In . SVG Version: 6.00 Build 0)  -->
<svg version="1.1" xmlns="http://www.w3.org/2000/svg" xmlns:xlink="http://www.w3.org/1999/xlink" x="0px" y="0px"
	 viewBox="0 0 141.7 141.7" style="enable-background:new 0 0 141.7 141.7;" xml:space="preserve">
<style type="text/css">
	.st0{fill:#FFFFFF;}
</style>
<g id="Laag_1">
</g>
<g id="Laag_2">
	<path id="XMLID_2_" class="st0" d="M127.8,21.7L26.3,110.6c-0.9,0.8-2.2,0.7-3-0.2l-6.2-7.1c-0.8-0.9-0.7-2.2,0.2-3l101.4-88.9
		c0.9-0.8,2.2-0.7,3,0.2l6.2,7.1C128.7,19.6,128.6,20.9,127.8,21.7z"/>
	<g id="XMLID_1_">
		<path id="XMLID_10_" class="st0" d="M55.3,79.2c-5.3,2-9.6,4.7-13.1,8.1c-0.4,0.4-0.7,1-0.7,1.5c0,0.7,1.2,2.3,3.7,4.9l19.3-16.9
			C61.5,77.2,58.4,78,55.3,79.2z"/>
		<path id="XMLID_11_" class="st0" d="M70.9,93.4c2.9,0,5.8,0.6,8.6,1.7c2.8,1.1,5.1,2.2,6.8,3.3c1.7,1.1,2.6,1.7,2.7,1.7
			c0.8,0,2.9-1.7,6.3-5c3.4-3.3,5.1-5.4,5.1-6.2c0-0.6-0.2-1.1-0.7-1.5c-3.5-3.4-7.9-6.1-13.1-8.1c-1-0.4-2-0.7-2.9-1L65.5,94.1
			C67.3,93.6,69.1,93.4,70.9,93.4z"/>
		<path id="XMLID_12_" class="st0" d="M70.9,50.5c-8.6,0-17.1,1.6-25.4,4.9c-8.4,3.3-15.5,7.8-21.4,13.7c-0.4,0.4-0.7,0.9-0.7,1.5
			c0,0.8,1.7,2.9,5,6.2c3.3,3.3,5.4,5,6.2,5c0.1,0,0.8-0.5,2.1-1.5c1.3-1,3.1-2.2,5.3-3.5c2.2-1.4,4.8-2.8,7.6-4.2
			c2.8-1.4,6.2-2.6,10-3.5c3.8-1,7.6-1.5,11.4-1.5c1.3,0,2.6,0.1,3.8,0.1L91,53.6C84.4,51.6,77.7,50.5,70.9,50.5z"/>
		<path id="XMLID_13_" class="st0" d="M124,63.1c0.5,0.4,1,0.6,1.5,0.6c0.8,0,2.8-1.7,6.2-5s5.1-5.4,5.1-6.2c0-0.6-0.2-1.1-0.7-1.5
			c-3.4-3.3-7-6.4-10.9-9.1l-13.6,11.9C115.7,56.4,119.9,59.6,124,63.1z"/>
		<path id="XMLID_14_" class="st0" d="M105.8,81.3c0.5,0.4,1,0.5,1.5,0.5c0.8,0,2.8-1.7,6.2-5c3.3-3.3,5-5.4,5-6.2
			c0-0.5-0.2-1-0.7-1.5c-3.8-3.8-8-7-12.8-9.7L90.8,71.9C95.5,74.1,100.4,77.2,105.8,81.3z"/>
		<path id="XMLID_15_" class="st0" d="M77.9,103.4c-2.8-1-5.1-1.5-6.9-1.5c-1.8,0-4.1,0.5-6.9,1.5c-2.8,1-4.2,2.2-4.2,3.6
			c0,0.9,1.6,3,4.9,6.3c3.3,3.3,5.3,4.9,6.2,4.9c0.9,0,3-1.6,6.2-4.9c3.3-3.3,4.9-5.4,4.9-6.3C82.1,105.6,80.7,104.4,77.9,103.4z"/>
		<path id="XMLID_16_" class="st0" d="M106.2,31.6c-11.5-4.6-23.3-6.8-35.3-6.8c-12,0-23.8,2.3-35.3,6.8
			c-11.5,4.6-21.5,11-29.8,19.3c-0.4,0.4-0.7,1-0.7,1.5c0,0.8,1.7,2.9,5.1,6.2c3.4,3.3,5.4,5,6.2,5c0.5,0,1-0.2,1.5-0.6
			c8-7,16.3-12.3,24.9-15.8c8.6-3.5,18-5.3,28.2-5.3c9.9,0,19.1,1.7,27.5,5.1l14.3-12.5C110.6,33.5,108.5,32.5,106.2,31.6z"/>
	</g>
</g>
</svg>
