<?xml version="1.0" encoding="utf-8"?>
<!-- Generator: Adobe Illustrator 19.0.0, SVG Export Plug-In . SVG Version: 6.00 Build 0)  -->
<svg version="1.1" xmlns="http://www.w3.org/2000/svg" xmlns:xlink="http://www.w3.org/1999/xlink" x="0px" y="0px"
	 viewBox="0 0 141.7 141.7" style="enable-background:new 0 0 141.7 141.7;" xml:space="preserve">
<style type="text/css">
	.st0{fill:#FFFFFF;}
</style>
<g id="Laag_1">
	<g id="XMLID_2_">
		<path id="XMLID_3_" class="st0" d="M125.4,63.7c-0.5,0-1-0.2-1.5-0.6c-8-7-16.3-12.3-24.9-15.8c-8.6-3.5-18-5.3-28.2-5.3
			s-19.6,1.8-28.2,5.3c-8.6,3.5-16.9,8.8-24.9,15.8c-0.5,0.4-1,0.6-1.5,0.6c-0.8,0-2.8-1.7-6.2-5c-3.4-3.3-5.1-5.4-5.1-6.2
			c0-0.6,0.2-1.1,0.7-1.5c8.3-8.3,18.3-14.7,29.8-19.3c11.5-4.6,23.3-6.8,35.3-6.8c12,0,23.8,2.3,35.3,6.8
			c11.5,4.6,21.5,11,29.8,19.3c0.4,0.4,0.7,1,0.7,1.5c0,0.8-1.7,2.9-5.1,6.2S126.2,63.7,125.4,63.7z M107.3,81.9
			c-0.5,0-1-0.2-1.5-0.5c-6.1-4.7-11.7-8.1-16.9-10.3c-5.2-2.2-11.2-3.3-17.9-3.3c-3.8,0-7.6,0.5-11.4,1.5c-3.8,1-7.1,2.2-10,3.5
			c-2.8,1.4-5.4,2.8-7.6,4.2c-2.2,1.4-4,2.6-5.3,3.5c-1.3,1-2,1.5-2.1,1.5c-0.8,0-2.8-1.7-6.2-5c-3.3-3.3-5-5.4-5-6.2
			c0-0.5,0.2-1,0.7-1.5c5.9-5.9,13-10.5,21.4-13.7c8.4-3.3,16.9-4.9,25.4-4.9c8.6,0,17.1,1.6,25.4,4.9c8.4,3.3,15.5,7.8,21.4,13.7
			c0.4,0.4,0.7,0.9,0.7,1.5c0,0.8-1.7,2.9-5,6.2C110.1,80.2,108.1,81.9,107.3,81.9z M89,100.1c-0.1,0-1-0.6-2.7-1.7
			c-1.7-1.1-4-2.2-6.8-3.3c-2.8-1.1-5.7-1.7-8.6-1.7c-2.9,0-5.8,0.6-8.6,1.7c-2.8,1.1-5.1,2.2-6.8,3.3c-1.7,1.1-2.6,1.7-2.7,1.7
			c-0.8,0-2.9-1.7-6.3-5c-3.4-3.3-5.1-5.4-5.1-6.2c0-0.6,0.2-1.1,0.7-1.5c3.5-3.4,7.9-6.1,13.1-8.1c5.3-2,10.5-2.9,15.6-2.9
			c5.1,0,10.3,1,15.6,2.9c5.3,2,9.6,4.7,13.1,8.1c0.4,0.4,0.7,1,0.7,1.5c0,0.8-1.7,2.9-5.1,6.2C91.9,98.4,89.8,100.1,89,100.1z
			 M77.2,113.3c-3.3,3.3-5.3,4.9-6.2,4.9c-0.9,0-3-1.6-6.2-4.9c-3.3-3.3-4.9-5.4-4.9-6.3c0-1.4,1.4-2.6,4.2-3.6
			c2.8-1,5.1-1.5,6.9-1.5c1.8,0,4.1,0.5,6.9,1.5c2.8,1,4.2,2.2,4.2,3.6C82.1,107.9,80.4,110,77.2,113.3z"/>
	</g>
</g>
<g id="Laag_2">
</g>
</svg>
